<?xml version="1.0" encoding="UTF-8"?>
<!DOCTYPE svg PUBLIC "-//W3C//DTD SVG 1.1//EN" "http://www.w3.org/Graphics/SVG/1.1/DTD/svg11.dtd">
<svg xmlns="http://www.w3.org/2000/svg" version="1.1" width="500px" height="500px" style="shape-rendering:geometricPrecision; text-rendering:geometricPrecision; image-rendering:optimizeQuality; fill-rule:evenodd; clip-rule:evenodd" xmlns:xlink="http://www.w3.org/1999/xlink">
<g><path style="opacity:0.776" fill="#9686b4" d="M 239.5,147.5 C 239.5,147.833 239.5,148.167 239.5,148.5C 233.833,148.5 228.167,148.5 222.5,148.5C 227.989,146.427 233.656,146.094 239.5,147.5 Z"/></g>
<g><path style="opacity:0.997" fill="#faf6fa" d="M 222.5,148.5 C 228.167,148.5 233.833,148.5 239.5,148.5C 241.216,148.629 242.883,148.962 244.5,149.5C 249.172,152 253.839,154.5 258.5,157C 260.956,159.159 260.29,159.992 256.5,159.5C 254.521,157.832 252.188,157.166 249.5,157.5C 246.497,155.738 243.163,154.572 239.5,154C 234.845,153.501 230.179,153.334 225.5,153.5C 224.167,153.5 222.833,153.5 221.5,153.5C 227.653,152.672 233.987,152.172 240.5,152C 236.579,151.797 232.745,151.297 229,150.5C 225.27,151.46 221.437,151.793 217.5,151.5C 219.261,150.687 220.928,149.687 222.5,148.5 Z"/></g>
<g><path style="opacity:0.176" fill="#8778af" d="M 222.5,148.5 C 220.928,149.687 219.261,150.687 217.5,151.5C 215.901,151.232 214.568,151.566 213.5,152.5C 211.883,153.038 210.216,153.371 208.5,153.5C 212.664,150.666 217.331,148.999 222.5,148.5 Z"/></g>
<g><path style="opacity:0.998" fill="#fdfdf0" d="M 221.5,153.5 C 219.253,153.915 217.086,154.582 215,155.5C 212.422,155.318 211.922,154.318 213.5,152.5C 214.568,151.566 215.901,151.232 217.5,151.5C 221.437,151.793 225.27,151.46 229,150.5C 232.745,151.297 236.579,151.797 240.5,152C 233.987,152.172 227.653,152.672 221.5,153.5 Z"/></g>
<g><path style="opacity:0.482" fill="#7f6fa4" d="M 208.5,153.5 C 203.23,157.431 198.23,161.764 193.5,166.5C 196.947,160.387 201.947,156.054 208.5,153.5 Z"/></g>
<g><path style="opacity:0.176" fill="#7f6cac" d="M 225.5,153.5 C 230.179,153.334 234.845,153.501 239.5,154C 243.163,154.572 246.497,155.738 249.5,157.5C 236.788,152.912 224.454,153.745 212.5,160C 209.28,162.437 205.947,164.603 202.5,166.5C 208.846,159.827 216.512,155.494 225.5,153.5 Z"/></g>
<g><path style="opacity:0.997" fill="#f7f2f8" d="M 213.5,152.5 C 211.922,154.318 212.422,155.318 215,155.5C 217.086,154.582 219.253,153.915 221.5,153.5C 222.833,153.5 224.167,153.5 225.5,153.5C 216.512,155.494 208.846,159.827 202.5,166.5C 202.5,167.167 202.167,167.5 201.5,167.5C 199.086,168.911 197.419,170.911 196.5,173.5C 195.5,174.167 194.5,174.833 193.5,175.5C 193.519,173.94 193.852,172.44 194.5,171C 194.164,169.97 193.497,169.47 192.5,169.5C 193.11,168.609 193.443,167.609 193.5,166.5C 198.23,161.764 203.23,157.431 208.5,153.5C 210.216,153.371 211.883,153.038 213.5,152.5 Z"/></g>
<g><path style="opacity:0.333" fill="#9281b8" d="M 249.5,157.5 C 252.188,157.166 254.521,157.832 256.5,159.5C 256.5,159.833 256.5,160.167 256.5,160.5C 253.982,159.736 251.649,158.736 249.5,157.5 Z"/></g>
<g><path style="opacity:0.584" fill="#8677ac" d="M 239.5,148.5 C 239.5,148.167 239.5,147.833 239.5,147.5C 256.978,149.06 269.978,157.394 278.5,172.5C 275.86,169.194 272.86,166.194 269.5,163.5C 262.847,156.003 254.514,151.336 244.5,149.5C 242.883,148.962 241.216,148.629 239.5,148.5 Z"/></g>
<g><path style="opacity:0.996" fill="#f5f0f8" d="M 244.5,149.5 C 254.514,151.336 262.847,156.003 269.5,163.5C 267.243,163.038 265.243,162.038 263.5,160.5C 263.094,161.557 263.094,162.891 263.5,164.5C 263.167,164.5 262.833,164.5 262.5,164.5C 261.738,162.738 260.404,161.738 258.5,161.5C 257.508,161.672 256.842,161.338 256.5,160.5C 256.5,160.167 256.5,159.833 256.5,159.5C 260.29,159.992 260.956,159.159 258.5,157C 253.839,154.5 249.172,152 244.5,149.5 Z"/></g>
<g><path style="opacity:0.486" fill="#8877b2" d="M 258.5,161.5 C 260.404,161.738 261.738,162.738 262.5,164.5C 260.596,164.262 259.262,163.262 258.5,161.5 Z"/></g>
<g><path style="opacity:0.996" fill="#f7f3f6" d="M 269.5,163.5 C 272.86,166.194 275.86,169.194 278.5,172.5C 279.338,172.842 279.672,173.508 279.5,174.5C 280.167,176.5 280.833,178.5 281.5,180.5C 280.5,180.5 279.5,180.5 278.5,180.5C 278.5,181.833 278.5,183.167 278.5,184.5C 276.659,180.817 274.326,177.484 271.5,174.5C 269.792,170.428 267.126,167.095 263.5,164.5C 263.094,162.891 263.094,161.557 263.5,160.5C 265.243,162.038 267.243,163.038 269.5,163.5 Z"/></g>
<g><path style="opacity:0.808" fill="#9384b0" d="M 193.5,166.5 C 193.443,167.609 193.11,168.609 192.5,169.5C 191.5,170.167 190.5,170.833 189.5,171.5C 190.08,169.251 191.413,167.585 193.5,166.5 Z"/></g>
<g><path style="opacity:0.035" fill="#7862a3" d="M 201.5,167.5 C 200.581,170.089 198.914,172.089 196.5,173.5C 197.419,170.911 199.086,168.911 201.5,167.5 Z"/></g>
<g><path style="opacity:0.016" fill="#816fa8" d="M 262.5,164.5 C 262.833,164.5 263.167,164.5 263.5,164.5C 267.126,167.095 269.792,170.428 271.5,174.5C 268.51,171.208 265.51,167.874 262.5,164.5 Z"/></g>
<g><path style="opacity:0.325" fill="#776399" d="M 189.5,171.5 C 189.573,173.027 188.906,174.027 187.5,174.5C 187.427,172.973 188.094,171.973 189.5,171.5 Z"/></g>
<g><path style="opacity:0.208" fill="#8272a9" d="M 279.5,174.5 C 282.207,177.247 283.873,180.58 284.5,184.5C 283.5,183.167 282.5,181.833 281.5,180.5C 280.833,178.5 280.167,176.5 279.5,174.5 Z"/></g>
<g><path style="opacity:0.998" fill="#f4eef6" d="M 192.5,169.5 C 193.497,169.47 194.164,169.97 194.5,171C 193.852,172.44 193.519,173.94 193.5,175.5C 190.02,182.286 187.353,189.286 185.5,196.5C 185.575,191.78 186.575,187.28 188.5,183C 188,182.5 187.5,182 187,181.5C 186.451,183.76 185.284,185.426 183.5,186.5C 184.167,183.833 184.833,181.167 185.5,178.5C 185.66,176.847 186.326,175.514 187.5,174.5C 188.906,174.027 189.573,173.027 189.5,171.5C 190.5,170.833 191.5,170.167 192.5,169.5 Z"/></g>
<g><path style="opacity:0.247" fill="#8370aa" d="M 196.5,173.5 C 189.243,185.528 186.243,198.528 187.5,212.5C 186.833,211.167 186.167,209.833 185.5,208.5C 185.5,204.5 185.5,200.5 185.5,196.5C 187.353,189.286 190.02,182.286 193.5,175.5C 194.5,174.833 195.5,174.167 196.5,173.5 Z"/></g>
<g><path style="opacity:0.094" fill="#816fa7" d="M 271.5,174.5 C 274.326,177.484 276.659,180.817 278.5,184.5C 278.993,186.806 279.326,189.139 279.5,191.5C 277.127,185.751 274.46,180.084 271.5,174.5 Z"/></g>
<g><path style="opacity:0.996" fill="#fdfcf3" d="M 281.5,180.5 C 283.428,188.819 284.761,197.319 285.5,206C 285.167,206.5 284.833,207 284.5,207.5C 283.34,202.223 282.507,196.889 282,191.5C 281.478,188.719 280.311,186.385 278.5,184.5C 278.5,183.167 278.5,181.833 278.5,180.5C 279.5,180.5 280.5,180.5 281.5,180.5 Z"/></g>
<g><path style="opacity:0.392" fill="#7c669e" d="M 269.5,188.5 C 274.114,186.623 276.781,188.289 277.5,193.5C 277.043,194.298 276.376,194.631 275.5,194.5C 276.161,189.832 274.161,187.832 269.5,188.5 Z"/></g>
<g><path style="opacity:0.098" fill="#735fa0" d="M 284.5,184.5 C 286.163,186.438 286.829,188.772 286.5,191.5C 285.388,189.401 284.721,187.067 284.5,184.5 Z"/></g>
<g><path style="opacity:0.153" fill="#746194" d="M 269.5,188.5 C 268.22,189.931 266.553,190.598 264.5,190.5C 265.78,189.069 267.447,188.402 269.5,188.5 Z"/></g>
<g><path style="opacity:0.784" fill="#9281b6" d="M 185.5,178.5 C 184.833,181.167 184.167,183.833 183.5,186.5C 182.434,188.701 181.767,191.035 181.5,193.5C 181.167,193.5 180.833,193.5 180.5,193.5C 180.792,187.956 182.459,182.956 185.5,178.5 Z"/></g>
<g><path style="opacity:0.98" fill="#c1acdb" d="M 292.5,189.5 C 294.553,189.402 296.22,190.069 297.5,191.5C 295.533,191.739 293.699,191.406 292,190.5C 291.506,192.134 291.34,193.801 291.5,195.5C 290.853,194.726 290.52,193.726 290.5,192.5C 290.64,190.97 291.307,189.97 292.5,189.5 Z"/></g>
<g><path style="opacity:0.604" fill="#78669f" d="M 264.5,190.5 C 264.5,190.833 264.5,191.167 264.5,191.5C 263.167,191.833 261.833,192.167 260.5,192.5C 261.287,190.896 262.62,190.229 264.5,190.5 Z"/></g>
<g><path style="opacity:1" fill="#e6dcef" d="M 269.5,188.5 C 274.161,187.832 276.161,189.832 275.5,194.5C 274.432,195.434 273.099,195.768 271.5,195.5C 268.921,195.394 266.588,196.061 264.5,197.5C 264.586,196.504 264.252,195.671 263.5,195C 265.421,194.64 267.088,193.806 268.5,192.5C 270.586,194.023 272.252,193.69 273.5,191.5C 270.588,190.932 267.588,190.932 264.5,191.5C 264.5,191.167 264.5,190.833 264.5,190.5C 266.553,190.598 268.22,189.931 269.5,188.5 Z"/></g>
<g><path style="opacity:0.145" fill="#7d6ea4" d="M 297.5,191.5 C 300.198,191.845 302.198,193.178 303.5,195.5C 301.147,194.66 299.147,193.326 297.5,191.5 Z"/></g>
<g><path style="opacity:0.998" fill="#fefcf6" d="M 185.5,196.5 C 185.5,200.5 185.5,204.5 185.5,208.5C 185.496,210.842 184.663,212.842 183,214.5C 181.837,207.547 181.337,200.547 181.5,193.5C 181.767,191.035 182.434,188.701 183.5,186.5C 185.284,185.426 186.451,183.76 187,181.5C 187.5,182 188,182.5 188.5,183C 186.575,187.28 185.575,191.78 185.5,196.5 Z"/></g>
<g><path style="opacity:0.024" fill="#7964a5" d="M 292.5,189.5 C 291.307,189.97 290.64,190.97 290.5,192.5C 290.52,193.726 290.853,194.726 291.5,195.5C 293.5,196.5 295.5,197.5 297.5,198.5C 297.5,198.833 297.5,199.167 297.5,199.5C 294.594,198.213 291.594,197.213 288.5,196.5C 289.672,194.156 289.672,191.823 288.5,189.5C 289.958,188.218 291.292,188.218 292.5,189.5 Z"/></g>
<g><path style="opacity:0.024" fill="#7d6ba7" d="M 303.5,195.5 C 306.833,196.833 309.167,199.167 310.5,202.5C 308.5,200.833 306.5,199.167 304.5,197.5C 304.167,196.833 303.833,196.167 303.5,195.5 Z"/></g>
<g><path style="opacity:0.997" fill="#f8f4f7" d="M 264.5,197.5 C 261.891,198.443 259.891,200.11 258.5,202.5C 258.167,203.5 257.5,204.167 256.5,204.5C 255.167,205.5 253.833,206.5 252.5,207.5C 251.624,207.369 250.957,207.702 250.5,208.5C 244.116,223.234 243.116,222.901 247.5,207.5C 248.072,205.745 248.906,204.078 250,202.5C 253.396,198.935 256.896,195.602 260.5,192.5C 261.833,192.167 263.167,191.833 264.5,191.5C 267.588,190.932 270.588,190.932 273.5,191.5C 272.252,193.69 270.586,194.023 268.5,192.5C 267.088,193.806 265.421,194.64 263.5,195C 264.252,195.671 264.586,196.504 264.5,197.5 Z"/></g>
<g><path style="opacity:0.365" fill="#7e6d9f" d="M 271.5,195.5 C 267.047,197.561 262.713,199.894 258.5,202.5C 259.891,200.11 261.891,198.443 264.5,197.5C 266.588,196.061 268.921,195.394 271.5,195.5 Z"/></g>
<g><path style="opacity:0.996" fill="#faf6f6" d="M 297.5,191.5 C 299.147,193.326 301.147,194.66 303.5,195.5C 303.833,196.167 304.167,196.833 304.5,197.5C 307.278,203.448 306.278,203.948 301.5,199C 300.207,198.51 298.873,198.343 297.5,198.5C 295.5,197.5 293.5,196.5 291.5,195.5C 291.34,193.801 291.506,192.134 292,190.5C 293.699,191.406 295.533,191.739 297.5,191.5 Z"/></g>
<g><path style="opacity:0.592" fill="#8878ab" d="M 297.5,199.5 C 299.027,199.427 300.027,200.094 300.5,201.5C 298.973,201.573 297.973,200.906 297.5,199.5 Z"/></g>
<g><path style="opacity:0.486" fill="#8776ab" d="M 260.5,192.5 C 256.896,195.602 253.396,198.935 250,202.5C 248.906,204.078 248.072,205.745 247.5,207.5C 246.833,207.833 246.167,208.167 245.5,208.5C 248.441,201.226 253.441,195.893 260.5,192.5 Z"/></g>
<g><path style="opacity:0.256" fill="#76659c" d="M 180.5,194.5 C 180.365,201.862 180.698,209.196 181.5,216.5C 179.983,212.44 179.316,208.107 179.5,203.5C 179.502,200.314 179.835,197.314 180.5,194.5 Z"/></g>
<g><path style="opacity:0.996" fill="#f1ebf7" d="M 304.5,197.5 C 306.5,199.167 308.5,200.833 310.5,202.5C 310.5,203.167 310.5,203.833 310.5,204.5C 309.504,204.586 308.671,204.252 308,203.5C 307.287,206.475 308.121,208.975 310.5,211C 310.272,211.399 309.938,211.565 309.5,211.5C 309.167,211.5 308.833,211.5 308.5,211.5C 308.573,209.973 307.906,208.973 306.5,208.5C 306.573,206.973 305.906,205.973 304.5,205.5C 302.833,204.5 301.5,203.167 300.5,201.5C 300.027,200.094 299.027,199.427 297.5,199.5C 297.5,199.167 297.5,198.833 297.5,198.5C 298.873,198.343 300.207,198.51 301.5,199C 306.278,203.948 307.278,203.448 304.5,197.5 Z"/></g>
<g><path style="opacity:0.014" fill="#7b69a6" d="M 279.5,191.5 C 280.935,194.55 281.602,197.883 281.5,201.5C 281.165,205.507 280.832,209.507 280.5,213.5C 279.833,214.5 279.167,215.5 278.5,216.5C 279.371,208.2 279.705,199.867 279.5,191.5 Z"/></g>
<g><path style="opacity:0.259" fill="#8371ae" d="M 310.5,202.5 C 312.822,203.802 314.155,205.802 314.5,208.5C 313.167,207.167 311.833,205.833 310.5,204.5C 310.5,203.833 310.5,203.167 310.5,202.5 Z"/></g>
<g><path style="opacity:0.027" fill="#7c70af" d="M 304.5,205.5 C 305.906,205.973 306.573,206.973 306.5,208.5C 305.094,208.027 304.427,207.027 304.5,205.5 Z"/></g>
<g><path style="opacity:0.997" fill="#f9f5fa" d="M 281.5,180.5 C 282.5,181.833 283.5,183.167 284.5,184.5C 284.721,187.067 285.388,189.401 286.5,191.5C 286.666,198.508 286.5,205.508 286,212.5C 285.134,215.979 283.967,219.312 282.5,222.5C 280.974,223.105 279.974,224.271 279.5,226C 278.517,226.591 277.85,226.257 277.5,225C 279.424,221.397 280.424,217.564 280.5,213.5C 280.832,209.507 281.165,205.507 281.5,201.5C 281.602,197.883 280.935,194.55 279.5,191.5C 279.326,189.139 278.993,186.806 278.5,184.5C 280.311,186.385 281.478,188.719 282,191.5C 282.507,196.889 283.34,202.223 284.5,207.5C 284.833,207 285.167,206.5 285.5,206C 284.761,197.319 283.428,188.819 281.5,180.5 Z"/></g>
<g><path style="opacity:0.278" fill="#8674ab" d="M 286.5,191.5 C 287.167,193.167 287.833,194.833 288.5,196.5C 289.446,208.227 286.78,218.894 280.5,228.5C 281.167,226.5 281.833,224.5 282.5,222.5C 283.967,219.312 285.134,215.979 286,212.5C 286.5,205.508 286.666,198.508 286.5,191.5 Z"/></g>
<g><path style="opacity:0.188" fill="#7d6aa3" d="M 306.5,208.5 C 307.906,208.973 308.573,209.973 308.5,211.5C 307.094,211.027 306.427,210.027 306.5,208.5 Z"/></g>
<g><path style="opacity:0.997" fill="#f4edf7" d="M 310.5,204.5 C 311.833,205.833 313.167,207.167 314.5,208.5C 314.182,211.481 315.182,213.815 317.5,215.5C 318.434,216.568 318.768,217.901 318.5,219.5C 318.666,225.176 318.499,230.843 318,236.5C 317.768,237.737 317.268,238.737 316.5,239.5C 317.19,233.198 317.524,227.032 317.5,221C 316.009,218.903 315.009,216.57 314.5,214C 314.167,213.833 313.833,213.667 313.5,213.5C 312.548,215.045 312.215,216.712 312.5,218.5C 311.264,216.351 310.264,214.018 309.5,211.5C 309.938,211.565 310.272,211.399 310.5,211C 308.121,208.975 307.287,206.475 308,203.5C 308.671,204.252 309.504,204.586 310.5,204.5 Z"/></g>
<g><path style="opacity:0.969" fill="#b2a4d0" d="M 245.5,208.5 C 245.843,210.483 245.176,211.817 243.5,212.5C 243.66,210.847 244.326,209.514 245.5,208.5 Z"/></g>
<g><path style="opacity:0.996" fill="#efe8f5" d="M 180.5,193.5 C 180.833,193.5 181.167,193.5 181.5,193.5C 181.337,200.547 181.837,207.547 183,214.5C 184.663,212.842 185.496,210.842 185.5,208.5C 186.167,209.833 186.833,211.167 187.5,212.5C 188.434,213.568 188.768,214.901 188.5,216.5C 188.287,219.451 188.954,222.118 190.5,224.5C 189.542,224.047 188.708,223.381 188,222.5C 186.524,213.21 185.357,213.21 184.5,222.5C 183.5,220.5 182.5,218.5 181.5,216.5C 180.698,209.196 180.365,201.862 180.5,194.5C 180.5,194.167 180.5,193.833 180.5,193.5 Z"/></g>
<g><path style="opacity:0.153" fill="#8a77b0" d="M 314.5,208.5 C 316.293,210.426 317.293,212.759 317.5,215.5C 315.182,213.815 314.182,211.481 314.5,208.5 Z"/></g>
<g><path style="opacity:0.118" fill="#75629f" d="M 243.5,212.5 C 243.598,214.553 242.931,216.22 241.5,217.5C 241.402,215.447 242.069,213.78 243.5,212.5 Z"/></g>
<g><path style="opacity:0.998" fill="#f8f3fb" d="M 247.5,207.5 C 243.116,222.901 244.116,223.234 250.5,208.5C 250.957,207.702 251.624,207.369 252.5,207.5C 250.679,211.812 248.846,216.145 247,220.5C 246.501,224.486 246.334,228.486 246.5,232.5C 245.894,229.833 245.061,227.166 244,224.5C 243.501,229.489 243.334,234.489 243.5,239.5C 242.698,238.048 242.198,236.382 242,234.5C 241.501,229.177 241.334,223.844 241.5,218.5C 241.5,218.167 241.5,217.833 241.5,217.5C 242.931,216.22 243.598,214.553 243.5,212.5C 245.176,211.817 245.843,210.483 245.5,208.5C 246.167,208.167 246.833,207.833 247.5,207.5 Z"/></g>
<g><path style="opacity:0.184" fill="#74619c" d="M 278.5,216.5 C 278.598,218.553 277.931,220.22 276.5,221.5C 276.402,219.447 277.069,217.78 278.5,216.5 Z"/></g>
<g><path style="opacity:0.997" fill="#fbf8f9" d="M 190.5,224.5 C 191.338,224.842 191.672,225.508 191.5,226.5C 191.98,229.005 192.98,231.338 194.5,233.5C 193.675,234.386 192.675,234.719 191.5,234.5C 190.833,234.167 190.167,233.833 189.5,233.5C 187.576,229.983 185.909,226.316 184.5,222.5C 185.357,213.21 186.524,213.21 188,222.5C 188.708,223.381 189.542,224.047 190.5,224.5 Z"/></g>
<g><path style="opacity:0.329" fill="#8877a9" d="M 181.5,216.5 C 182.5,218.5 183.5,220.5 184.5,222.5C 185.909,226.316 187.576,229.983 189.5,233.5C 184.977,228.784 182.31,223.117 181.5,216.5 Z"/></g>
<g><path style="opacity:0.996" fill="#efe7f6" d="M 280.5,213.5 C 280.424,217.564 279.424,221.397 277.5,225C 277.85,226.257 278.517,226.591 279.5,226C 279.974,224.271 280.974,223.105 282.5,222.5C 281.833,224.5 281.167,226.5 280.5,228.5C 280.672,229.492 280.338,230.158 279.5,230.5C 278.094,230.973 277.427,231.973 277.5,233.5C 277.5,234.167 277.167,234.5 276.5,234.5C 276.5,232.5 276.5,230.5 276.5,228.5C 275.5,228.5 274.5,228.5 273.5,228.5C 275.312,226.539 276.312,224.206 276.5,221.5C 277.931,220.22 278.598,218.553 278.5,216.5C 279.167,215.5 279.833,214.5 280.5,213.5 Z"/></g>
<g><path style="opacity:0.42" fill="#7b6a9f" d="M 188.5,216.5 C 190.976,222.117 193.976,227.451 197.5,232.5C 195.139,230.806 193.139,228.806 191.5,226.5C 191.672,225.508 191.338,224.842 190.5,224.5C 188.954,222.118 188.287,219.451 188.5,216.5 Z"/></g>
<g><path style="opacity:0.596" fill="#8474aa" d="M 276.5,221.5 C 276.312,224.206 275.312,226.539 273.5,228.5C 272.833,229.833 271.833,230.833 270.5,231.5C 272.11,227.9 274.11,224.566 276.5,221.5 Z"/></g>
<g><path style="opacity:0.998" fill="#fcfbf9" d="M 316.5,239.5 C 315.288,240.23 314.288,241.23 313.5,242.5C 313.167,242.167 312.833,241.833 312.5,241.5C 313.407,238.579 313.74,235.579 313.5,232.5C 313.647,227.786 313.314,223.119 312.5,218.5C 312.215,216.712 312.548,215.045 313.5,213.5C 313.833,213.667 314.167,213.833 314.5,214C 315.009,216.57 316.009,218.903 317.5,221C 317.524,227.032 317.19,233.198 316.5,239.5 Z"/></g>
<g><path style="opacity:0.09" fill="#7963ab" d="M 279.5,230.5 C 279.573,232.027 278.906,233.027 277.5,233.5C 277.427,231.973 278.094,230.973 279.5,230.5 Z"/></g>
<g><path style="opacity:0.741" fill="#8c7bab" d="M 197.5,232.5 C 199.833,234.167 201.833,236.167 203.5,238.5C 200.5,237.5 198.5,235.5 197.5,232.5 Z"/></g>
<g><path style="opacity:0.031" fill="#7d6ea3" d="M 189.5,233.5 C 190.167,233.833 190.833,234.167 191.5,234.5C 193.167,238.167 195.833,240.833 199.5,242.5C 199.833,243.167 200.167,243.833 200.5,244.5C 195.167,242.5 191.5,238.833 189.5,233.5 Z"/></g>
<g><path style="opacity:0.999" fill="#f7f1fb" d="M 191.5,226.5 C 193.139,228.806 195.139,230.806 197.5,232.5C 198.5,235.5 200.5,237.5 203.5,238.5C 203.5,238.833 203.5,239.167 203.5,239.5C 200.912,239.457 198.746,238.457 197,236.5C 197.074,238.765 197.907,240.765 199.5,242.5C 195.833,240.833 193.167,238.167 191.5,234.5C 192.675,234.719 193.675,234.386 194.5,233.5C 192.98,231.338 191.98,229.005 191.5,226.5 Z"/></g>
<g><path style="opacity:0.996" fill="#f5eff6" d="M 273.5,228.5 C 274.5,228.5 275.5,228.5 276.5,228.5C 276.5,230.5 276.5,232.5 276.5,234.5C 276.5,235.167 276.167,235.5 275.5,235.5C 273.167,237.167 271.167,239.167 269.5,241.5C 269.167,242.5 268.5,243.167 267.5,243.5C 265.147,244.34 263.147,245.674 261.5,247.5C 260.833,248.833 260.167,248.833 259.5,247.5C 258.972,246.279 258.305,245.113 257.5,244C 259.041,242.629 260.375,241.129 261.5,239.5C 264.737,238.431 267.737,237.098 270.5,235.5C 270.5,234.167 270.5,232.833 270.5,231.5C 271.833,230.833 272.833,229.833 273.5,228.5 Z"/></g>
<g><path style="opacity:0.012" fill="#7e6da3" d="M 275.5,235.5 C 274.5,238.5 272.5,240.5 269.5,241.5C 271.167,239.167 273.167,237.167 275.5,235.5 Z"/></g>
<g><path style="opacity:0.282" fill="#8773ac" d="M 241.5,218.5 C 241.334,223.844 241.501,229.177 242,234.5C 242.198,236.382 242.698,238.048 243.5,239.5C 244.167,241.5 244.833,243.5 245.5,245.5C 246.6,246.605 247.267,247.938 247.5,249.5C 246.542,249.047 245.708,248.381 245,247.5C 240.596,238.105 239.43,228.438 241.5,218.5 Z"/></g>
<g><path style="opacity:0.286" fill="#8979ad" d="M 256.5,204.5 C 252.601,210.302 249.768,216.636 248,223.5C 247.64,229.673 248.473,235.673 250.5,241.5C 248.432,238.788 247.099,235.788 246.5,232.5C 246.334,228.486 246.501,224.486 247,220.5C 248.846,216.145 250.679,211.812 252.5,207.5C 253.833,206.5 255.167,205.5 256.5,204.5 Z"/></g>
<g><path style="opacity:1" fill="#c8bade" d="M 270.5,231.5 C 270.5,232.833 270.5,234.167 270.5,235.5C 267.737,237.098 264.737,238.431 261.5,239.5C 264.474,236.862 267.474,234.195 270.5,231.5 Z"/></g>
<g><path style="opacity:0.176" fill="#8979b2" d="M 308.5,211.5 C 308.833,211.5 309.167,211.5 309.5,211.5C 310.264,214.018 311.264,216.351 312.5,218.5C 313.314,223.119 313.647,227.786 313.5,232.5C 312.869,234.975 311.869,237.309 310.5,239.5C 312.921,229.998 312.254,220.665 308.5,211.5 Z"/></g>
<g><path style="opacity:0.494" fill="#7a699e" d="M 318.5,219.5 C 320.853,229.955 319.353,239.955 314,249.5C 312.264,252.739 309.764,255.073 306.5,256.5C 309.234,253.375 311.734,250.042 314,246.5C 315.411,244.35 316.245,242.016 316.5,239.5C 317.268,238.737 317.768,237.737 318,236.5C 318.499,230.843 318.666,225.176 318.5,219.5 Z"/></g>
<g><path style="opacity:0.192" fill="#7c6ca4" d="M 203.5,239.5 C 203.5,239.167 203.5,238.833 203.5,238.5C 205.027,238.427 206.027,239.094 206.5,240.5C 205.391,240.443 204.391,240.11 203.5,239.5 Z"/></g>
<g><path style="opacity:0.996" fill="#faf8f6" d="M 203.5,239.5 C 204.391,240.11 205.391,240.443 206.5,240.5C 207.436,241.974 208.77,242.974 210.5,243.5C 210.511,245.017 211.177,246.184 212.5,247C 209.486,246.855 206.486,246.355 203.5,245.5C 202.609,244.89 201.609,244.557 200.5,244.5C 200.167,243.833 199.833,243.167 199.5,242.5C 197.907,240.765 197.074,238.765 197,236.5C 198.746,238.457 200.912,239.457 203.5,239.5 Z"/></g>
<g><path style="opacity:0.997" fill="#f8f2fa" d="M 313.5,232.5 C 313.74,235.579 313.407,238.579 312.5,241.5C 312.833,241.833 313.167,242.167 313.5,242.5C 314.288,241.23 315.288,240.23 316.5,239.5C 316.245,242.016 315.411,244.35 314,246.5C 311.734,250.042 309.234,253.375 306.5,256.5C 305.391,256.557 304.391,256.89 303.5,257.5C 304.682,255.997 305.182,254.33 305,252.5C 303.644,253.38 302.144,253.714 300.5,253.5C 300.5,253.167 300.5,252.833 300.5,252.5C 304.565,250.767 307.232,247.767 308.5,243.5C 310.104,242.713 310.771,241.38 310.5,239.5C 311.869,237.309 312.869,234.975 313.5,232.5 Z"/></g>
<g><path style="opacity:0.314" fill="#8674b1" d="M 206.5,240.5 C 210.628,241.729 214.295,243.729 217.5,246.5C 216.069,248.938 214.069,250.604 211.5,251.5C 212.81,249.852 214.143,248.186 215.5,246.5C 213.971,245.237 212.305,244.237 210.5,243.5C 208.77,242.974 207.436,241.974 206.5,240.5 Z"/></g>
<g><path style="opacity:0.997" fill="#fcfaf8" d="M 246.5,232.5 C 246.886,238.655 248.886,244.322 252.5,249.5C 252.333,249.833 252.167,250.167 252,250.5C 249.816,248.712 247.649,247.046 245.5,245.5C 244.833,243.5 244.167,241.5 243.5,239.5C 243.334,234.489 243.501,229.489 244,224.5C 245.061,227.166 245.894,229.833 246.5,232.5 Z"/></g>
<g><path style="opacity:0.373" fill="#8072a7" d="M 310.5,239.5 C 310.771,241.38 310.104,242.713 308.5,243.5C 308.66,241.847 309.326,240.514 310.5,239.5 Z"/></g>
<g><path style="opacity:0.235" fill="#75629e" d="M 250.5,241.5 C 251.906,241.973 252.573,242.973 252.5,244.5C 251.094,244.027 250.427,243.027 250.5,241.5 Z"/></g>
<g><path style="opacity:0.314" fill="#9c87bc" d="M 261.5,239.5 C 260.375,241.129 259.041,242.629 257.5,244C 258.305,245.113 258.972,246.279 259.5,247.5C 257.561,246.986 256.561,245.653 256.5,243.5C 257.579,241.42 259.245,240.087 261.5,239.5 Z"/></g>
<g><path style="opacity:0.369" fill="#8474af" d="M 200.5,244.5 C 201.609,244.557 202.609,244.89 203.5,245.5C 203.5,245.833 203.5,246.167 203.5,246.5C 201.973,246.573 200.973,245.906 200.5,244.5 Z"/></g>
<g><path style="opacity:0.325" fill="#736598" d="M 252.5,244.5 C 253.906,244.973 254.573,245.973 254.5,247.5C 253.094,247.027 252.427,246.027 252.5,244.5 Z"/></g>
<g><path style="opacity:0.122" fill="#806ea8" d="M 267.5,243.5 C 266.198,245.822 264.198,247.155 261.5,247.5C 263.147,245.674 265.147,244.34 267.5,243.5 Z"/></g>
<g><path style="opacity:0.192" fill="#8072a1" d="M 203.5,246.5 C 206.715,246.987 207.048,247.987 204.5,249.5C 204.443,248.391 204.11,247.391 203.5,246.5 Z"/></g>
<g><path style="opacity:0.773" fill="#998bbc" d="M 254.5,247.5 C 256.5,248.833 258.167,250.5 259.5,252.5C 256.833,251.833 255.167,250.167 254.5,247.5 Z"/></g>
<g><path style="opacity:0.49" fill="#8b7bab" d="M 308.5,243.5 C 307.232,247.767 304.565,250.767 300.5,252.5C 303.195,249.474 305.862,246.474 308.5,243.5 Z"/></g>
<g><path style="opacity:0.518" fill="#9080b0" d="M 204.5,249.5 C 204.5,249.833 204.5,250.167 204.5,250.5C 203.609,251.11 202.609,251.443 201.5,251.5C 201.973,250.094 202.973,249.427 204.5,249.5 Z"/></g>
<g><path style="opacity:0.997" fill="#efe9f7" d="M 204.5,250.5 C 205.239,250.369 205.906,250.536 206.5,251C 204.043,252.512 204.043,253.846 206.5,255C 204.431,255.324 204.098,256.158 205.5,257.5C 212.468,258.497 219.468,258.83 226.5,258.5C 219.345,259.655 212.012,259.822 204.5,259C 200.487,257.841 199.487,255.341 201.5,251.5C 202.609,251.443 203.609,251.11 204.5,250.5 Z"/></g>
<g><path style="opacity:0.998" fill="#f8f2f9" d="M 246.5,232.5 C 247.099,235.788 248.432,238.788 250.5,241.5C 250.427,243.027 251.094,244.027 252.5,244.5C 252.427,246.027 253.094,247.027 254.5,247.5C 255.167,250.167 256.833,251.833 259.5,252.5C 259.833,253.5 260.5,254.167 261.5,254.5C 261.694,256.912 263.027,257.912 265.5,257.5C 265.414,258.496 265.748,259.329 266.5,260C 265.263,260.232 264.263,260.732 263.5,261.5C 260.91,260.872 258.577,259.705 256.5,258C 253.631,254.962 250.631,252.129 247.5,249.5C 247.267,247.938 246.6,246.605 245.5,245.5C 247.649,247.046 249.816,248.712 252,250.5C 252.167,250.167 252.333,249.833 252.5,249.5C 248.886,244.322 246.886,238.655 246.5,232.5 Z"/></g>
<g><path style="opacity:0.247" fill="#73639e" d="M 211.5,251.5 C 216.64,252.488 221.974,252.821 227.5,252.5C 222.36,253.488 217.026,253.821 211.5,253.5C 209.067,253.214 209.067,252.548 211.5,251.5 Z"/></g>
<g><path style="opacity:0.039" fill="#8073a3" d="M 259.5,252.5 C 261.027,252.427 262.027,253.094 262.5,254.5C 262.167,254.5 261.833,254.5 261.5,254.5C 260.5,254.167 259.833,253.5 259.5,252.5 Z"/></g>
<g><path style="opacity:0.996" fill="#f6f2f7" d="M 210.5,243.5 C 212.305,244.237 213.971,245.237 215.5,246.5C 214.143,248.186 212.81,249.852 211.5,251.5C 209.067,252.548 209.067,253.214 211.5,253.5C 215.5,254.167 219.5,254.833 223.5,255.5C 224.334,256.748 225.667,257.415 227.5,257.5C 231.476,256.836 235.476,256.503 239.5,256.5C 239.5,256.833 239.5,257.167 239.5,257.5C 237.735,258.461 235.735,258.795 233.5,258.5C 231.167,258.5 228.833,258.5 226.5,258.5C 219.468,258.83 212.468,258.497 205.5,257.5C 204.098,256.158 204.431,255.324 206.5,255C 204.043,253.846 204.043,252.512 206.5,251C 205.906,250.536 205.239,250.369 204.5,250.5C 204.5,250.167 204.5,249.833 204.5,249.5C 207.048,247.987 206.715,246.987 203.5,246.5C 203.5,246.167 203.5,245.833 203.5,245.5C 206.486,246.355 209.486,246.855 212.5,247C 211.177,246.184 210.511,245.017 210.5,243.5 Z"/></g>
<g><path style="opacity:0.993" fill="#e5dbef" d="M 243.5,255.5 C 243.582,253.748 242.749,252.748 241,252.5C 235.154,253.684 229.321,254.684 223.5,255.5C 219.5,254.833 215.5,254.167 211.5,253.5C 217.026,253.821 222.36,253.488 227.5,252.5C 229.607,251.532 231.941,251.198 234.5,251.5C 237.525,251.123 240.525,250.956 243.5,251C 246.106,252.65 246.106,254.15 243.5,255.5 Z"/></g>
<g><path style="opacity:0.996" fill="#fdfcf6" d="M 243.5,255.5 C 242.041,255.433 240.708,255.766 239.5,256.5C 235.476,256.503 231.476,256.836 227.5,257.5C 225.667,257.415 224.334,256.748 223.5,255.5C 229.321,254.684 235.154,253.684 241,252.5C 242.749,252.748 243.582,253.748 243.5,255.5 Z"/></g>
<g><path style="opacity:0.502" fill="#8e80aa" d="M 300.5,252.5 C 300.5,252.833 300.5,253.167 300.5,253.5C 299.609,254.11 298.609,254.443 297.5,254.5C 297.973,253.094 298.973,252.427 300.5,252.5 Z"/></g>
<g><path style="opacity:0.22" fill="#8b74b2" d="M 239.5,257.5 C 239.5,257.167 239.5,256.833 239.5,256.5C 240.708,255.766 242.041,255.433 243.5,255.5C 246.106,254.15 246.106,252.65 243.5,251C 240.525,250.956 237.525,251.123 234.5,251.5C 237.051,250.516 239.718,249.516 242.5,248.5C 248.451,253.685 247.451,256.685 239.5,257.5 Z"/></g>
<g><path style="opacity:1" fill="#d1c7e2" d="M 261.5,254.5 C 261.833,254.5 262.167,254.5 262.5,254.5C 263.71,254.932 264.71,255.599 265.5,256.5C 265.5,256.833 265.5,257.167 265.5,257.5C 263.027,257.912 261.694,256.912 261.5,254.5 Z"/></g>
<g><path style="opacity:0.996" fill="#f9f5f8" d="M 303.5,257.5 C 299.789,259.145 299.789,260.478 303.5,261.5C 303.5,263.5 303.5,265.5 303.5,267.5C 295.542,268.403 287.542,268.736 279.5,268.5C 279.5,268.167 279.5,267.833 279.5,267.5C 287.209,267.731 294.876,267.398 302.5,266.5C 302.5,265.5 302.5,264.5 302.5,263.5C 301.127,263.657 299.793,263.49 298.5,263C 300.686,262.396 300.852,261.23 299,259.5C 297.951,261.107 296.451,261.773 294.5,261.5C 293.833,261.5 293.5,261.167 293.5,260.5C 294.475,258.205 295.808,256.205 297.5,254.5C 298.609,254.443 299.609,254.11 300.5,253.5C 302.144,253.714 303.644,253.38 305,252.5C 305.182,254.33 304.682,255.997 303.5,257.5 Z"/></g>
<g><path style="opacity:0.38" fill="#9484b9" d="M 265.5,257.5 C 265.5,257.167 265.5,256.833 265.5,256.5C 270.252,258.193 274.919,259.86 279.5,261.5C 274.53,261.176 269.863,259.843 265.5,257.5 Z"/></g>
<g><path style="opacity:0.31" fill="#7e6ba5" d="M 247.5,249.5 C 250.631,252.129 253.631,254.962 256.5,258C 258.577,259.705 260.91,260.872 263.5,261.5C 263.833,262.167 264.167,262.833 264.5,263.5C 257.012,261.009 251.345,256.342 247.5,249.5 Z"/></g>
<g><path style="opacity:1" fill="#d4c8e9" d="M 297.5,254.5 C 295.808,256.205 294.475,258.205 293.5,260.5C 292.094,260.027 291.427,259.027 291.5,257.5C 293.181,255.992 295.181,254.992 297.5,254.5 Z"/></g>
<g><path style="opacity:0.337" fill="#7462a2" d="M 201.5,251.5 C 199.487,255.341 200.487,257.841 204.5,259C 212.012,259.822 219.345,259.655 226.5,258.5C 228.833,258.5 231.167,258.5 233.5,258.5C 227.916,260.034 222.083,260.701 216,260.5C 210.474,260.393 204.974,260.059 199.5,259.5C 198.964,256.302 199.631,253.635 201.5,251.5 Z"/></g>
<g><path style="opacity:0.267" fill="#8674a0" d="M 306.5,256.5 C 305.657,258.173 304.324,259.34 302.5,260C 303.056,260.383 303.389,260.883 303.5,261.5C 299.789,260.478 299.789,259.145 303.5,257.5C 304.391,256.89 305.391,256.557 306.5,256.5 Z"/></g>
<g><path style="opacity:0.996" fill="#f6eff9" d="M 265.5,257.5 C 269.863,259.843 274.53,261.176 279.5,261.5C 279.5,261.833 279.5,262.167 279.5,262.5C 276.038,262.177 272.705,262.177 269.5,262.5C 272.202,264.347 275.202,265.513 278.5,266C 277.944,266.383 277.611,266.883 277.5,267.5C 275.565,266.85 273.565,266.517 271.5,266.5C 269.815,264.182 267.481,263.182 264.5,263.5C 264.167,262.833 263.833,262.167 263.5,261.5C 264.263,260.732 265.263,260.232 266.5,260C 265.748,259.329 265.414,258.496 265.5,257.5 Z"/></g>
<g><path style="opacity:0.035" fill="#8775a9" d="M 291.5,257.5 C 291.427,259.027 292.094,260.027 293.5,260.5C 293.5,261.167 293.833,261.5 294.5,261.5C 294.611,262.117 294.944,262.617 295.5,263C 290.115,263.733 284.782,263.567 279.5,262.5C 279.5,262.167 279.5,261.833 279.5,261.5C 283.167,261.5 286.833,261.5 290.5,261.5C 290.232,259.901 290.566,258.568 291.5,257.5 Z"/></g>
<g><path style="opacity:0.998" fill="#fcfbfa" d="M 279.5,267.5 C 278.833,267.5 278.167,267.5 277.5,267.5C 277.611,266.883 277.944,266.383 278.5,266C 275.202,265.513 272.202,264.347 269.5,262.5C 272.705,262.177 276.038,262.177 279.5,262.5C 284.782,263.567 290.115,263.733 295.5,263C 294.944,262.617 294.611,262.117 294.5,261.5C 296.451,261.773 297.951,261.107 299,259.5C 300.852,261.23 300.686,262.396 298.5,263C 299.793,263.49 301.127,263.657 302.5,263.5C 302.5,264.5 302.5,265.5 302.5,266.5C 294.876,267.398 287.209,267.731 279.5,267.5 Z"/></g>
<g><path style="opacity:0.2" fill="#8471b3" d="M 264.5,263.5 C 267.481,263.182 269.815,264.182 271.5,266.5C 268.759,266.293 266.426,265.293 264.5,263.5 Z"/></g>
<g><path style="opacity:0.455" fill="#7966a4" d="M 271.5,266.5 C 273.565,266.517 275.565,266.85 277.5,267.5C 278.167,267.5 278.833,267.5 279.5,267.5C 279.5,267.833 279.5,268.167 279.5,268.5C 276.505,268.706 273.838,268.04 271.5,266.5 Z"/></g>
<g><path style="opacity:0.428" fill="#7a669b" d="M 303.5,261.5 C 304.814,263.895 304.814,266.395 303.5,269C 295.323,269.823 287.323,269.656 279.5,268.5C 287.542,268.736 295.542,268.403 303.5,267.5C 303.5,265.5 303.5,263.5 303.5,261.5 Z"/></g>
<g><path style="opacity:1" fill="#eaddf5" d="M 195.5,283.5 C 195.5,284.167 195.5,284.833 195.5,285.5C 194.417,285.461 193.417,285.127 192.5,284.5C 191.832,286.969 191.165,289.302 190.5,291.5C 190.123,288.475 189.956,285.475 190,282.5C 192.076,281.243 193.91,281.576 195.5,283.5 Z"/></g>
<g><path style="opacity:0.004" fill="#78629c" d="M 195.5,283.5 C 193.91,281.576 192.076,281.243 190,282.5C 189.956,285.475 190.123,288.475 190.5,291.5C 190.5,292.167 190.5,292.833 190.5,293.5C 190.167,293.5 189.833,293.5 189.5,293.5C 188.996,289.493 188.83,285.493 189,281.5C 190.726,280.424 192.559,280.257 194.5,281C 195.252,281.671 195.586,282.504 195.5,283.5 Z"/></g>
<g><path style="opacity:0.8" fill="#aa95cf" d="M 276.5,287.5 C 272.833,287.5 269.167,287.5 265.5,287.5C 269.192,284.989 272.858,284.989 276.5,287.5 Z"/></g>
<g><path style="opacity:0.624" fill="#8a75b2" d="M 330.5,301.5 C 330.5,300.5 330.5,299.5 330.5,298.5C 331.833,298.5 333.167,298.5 334.5,298.5C 334.5,297.5 334.5,296.5 334.5,295.5C 333.325,295.719 332.325,295.386 331.5,294.5C 332.167,292.5 332.833,290.5 333.5,288.5C 331.604,287.534 329.604,287.201 327.5,287.5C 327.598,289.553 326.931,291.22 325.5,292.5C 325.637,286.262 328.637,284.262 334.5,286.5C 334.708,288.92 334.374,291.253 333.5,293.5C 336.712,297.785 335.712,300.452 330.5,301.5 Z"/></g>
<g><path style="opacity:0.998" fill="#fbf7fb" d="M 195.5,285.5 C 196.861,292.702 194.861,298.702 189.5,303.5C 189.167,303.5 188.833,303.5 188.5,303.5C 187.5,303.5 186.5,303.5 185.5,303.5C 186.167,301.5 186.833,299.5 187.5,297.5C 189.446,296.965 190.446,295.632 190.5,293.5C 190.5,292.833 190.5,292.167 190.5,291.5C 191.165,289.302 191.832,286.969 192.5,284.5C 193.417,285.127 194.417,285.461 195.5,285.5 Z"/></g>
<g><path style="opacity:0.994" fill="#fbf9f9" d="M 219.5,287.5 C 219.297,289.044 218.63,290.378 217.5,291.5C 218.407,294.421 218.74,297.421 218.5,300.5C 217.596,301.209 217.263,302.209 217.5,303.5C 216.833,303.5 216.5,303.833 216.5,304.5C 215.065,306.401 213.398,306.734 211.5,305.5C 211.616,302.14 211.949,298.807 212.5,295.5C 214.267,293.208 215.267,290.542 215.5,287.5C 216.833,287.5 218.167,287.5 219.5,287.5 Z"/></g>
<g><path style="opacity:0.094" fill="#8575a4" d="M 265.5,287.5 C 263.955,290.109 262.288,290.109 260.5,287.5C 259.832,289.969 259.165,292.302 258.5,294.5C 257.992,291.824 257.825,289.157 258,286.5C 258.561,285.978 259.228,285.645 260,285.5C 261.567,286.856 263.4,287.523 265.5,287.5 Z"/></g>
<g><path style="opacity:0.998" fill="#f3edf5" d="M 265.5,287.5 C 269.167,287.5 272.833,287.5 276.5,287.5C 277.75,287.577 278.583,288.244 279,289.5C 279.789,291.712 279.622,293.712 278.5,295.5C 274.991,298.115 270.991,299.115 266.5,298.5C 265.335,296.891 264.001,296.557 262.5,297.5C 261.835,299.698 261.168,302.031 260.5,304.5C 259.859,303.007 258.859,302.007 257.5,301.5C 257.993,299.194 258.326,296.861 258.5,294.5C 259.165,292.302 259.832,289.969 260.5,287.5C 262.288,290.109 263.955,290.109 265.5,287.5 Z"/></g>
<g><path style="opacity:0.997" fill="#f7f2f9" d="M 283.5,287.5 C 285.5,287.5 287.5,287.5 289.5,287.5C 288.626,290.789 287.959,294.123 287.5,297.5C 287.167,297.5 286.833,297.5 286.5,297.5C 285.527,296.209 284.527,296.209 283.5,297.5C 282.659,300.872 281.159,303.872 279,306.5C 278.322,308.598 278.489,310.598 279.5,312.5C 277.955,311.77 277.122,310.437 277,308.5C 272.637,312.364 267.804,313.364 262.5,311.5C 261.086,309.402 261.752,308.402 264.5,308.5C 267.854,310.113 270.854,309.78 273.5,307.5C 275.027,307.573 276.027,306.906 276.5,305.5C 276.5,304.833 276.833,304.5 277.5,304.5C 278.75,304.423 279.583,303.756 280,302.5C 281.149,299.607 281.649,296.607 281.5,293.5C 283.074,291.898 283.741,289.898 283.5,287.5 Z"/></g>
<g><path style="opacity:0.89" fill="#a999d0" d="M 219.5,286.5 C 219.5,286.833 219.5,287.167 219.5,287.5C 218.167,287.5 216.833,287.5 215.5,287.5C 215.267,290.542 214.267,293.208 212.5,295.5C 212.197,290.85 214.03,287.516 218,285.5C 218.765,285.57 219.265,285.903 219.5,286.5 Z"/></g>
<g><path style="opacity:1" fill="#f9f2fc" d="M 330.5,298.5 C 330.46,295.119 330.793,291.786 331.5,288.5C 330.5,288.5 329.5,288.5 328.5,288.5C 328.439,292.846 327.273,296.846 325,300.5C 324.36,298.735 324.527,297.068 325.5,295.5C 325.5,294.5 325.5,293.5 325.5,292.5C 326.931,291.22 327.598,289.553 327.5,287.5C 329.604,287.201 331.604,287.534 333.5,288.5C 332.833,290.5 332.167,292.5 331.5,294.5C 332.325,295.386 333.325,295.719 334.5,295.5C 334.5,296.5 334.5,297.5 334.5,298.5C 333.167,298.5 331.833,298.5 330.5,298.5 Z"/></g>
<g><path style="opacity:0.8" fill="#bfaee1" d="M 202.5,288.5 C 202.833,288.5 203.167,288.5 203.5,288.5C 202.962,290.117 202.629,291.784 202.5,293.5C 201.596,292.791 201.263,291.791 201.5,290.5C 201.328,289.508 201.662,288.842 202.5,288.5 Z"/></g>
<g><path style="opacity:0.998" fill="#f6effb" d="M 203.5,288.5 C 204.833,288.5 206.167,288.5 207.5,288.5C 208.5,293.509 206.833,295.176 202.5,293.5C 202.629,291.784 202.962,290.117 203.5,288.5 Z"/></g>
<g><path style="opacity:0.561" fill="#9585b6" d="M 289.5,296.5 C 289.158,297.338 288.492,297.672 287.5,297.5C 287.959,294.123 288.626,290.789 289.5,287.5C 287.5,287.5 285.5,287.5 283.5,287.5C 285.452,285.258 287.785,284.924 290.5,286.5C 290.533,289.836 289.866,293.003 288.5,296C 288.728,296.399 289.062,296.565 289.5,296.5 Z"/></g>
<g><path style="opacity:0.98" fill="#74659f" d="M 268.5,290.5 C 269.833,290.5 271.167,290.5 272.5,290.5C 272.241,294.068 270.241,295.401 266.5,294.5C 266.527,292.801 267.194,291.467 268.5,290.5 Z"/></g>
<g><path style="opacity:0.514" fill="#86779f" d="M 283.5,287.5 C 283.741,289.898 283.074,291.898 281.5,293.5C 281.259,291.102 281.926,289.102 283.5,287.5 Z"/></g>
<g><path style="opacity:0.294" fill="#7866a2" d="M 202.5,288.5 C 204.364,287.207 206.364,287.207 208.5,288.5C 208.931,289.293 209.265,290.127 209.5,291C 208.229,294.636 206.896,298.136 205.5,301.5C 205.5,299.833 205.5,298.167 205.5,296.5C 203.379,296.325 201.379,296.659 199.5,297.5C 199.927,294.99 200.593,292.657 201.5,290.5C 201.263,291.791 201.596,292.791 202.5,293.5C 206.833,295.176 208.5,293.509 207.5,288.5C 206.167,288.5 204.833,288.5 203.5,288.5C 203.167,288.5 202.833,288.5 202.5,288.5 Z"/></g>
<g><path style="opacity:0.098" fill="#8473ac" d="M 177.5,287.5 C 177.5,287.833 177.5,288.167 177.5,288.5C 173.438,289.686 169.605,291.352 166,293.5C 164.491,298.493 166.325,300.493 171.5,299.5C 171.5,297.833 171.5,296.167 171.5,294.5C 171.5,294.167 171.5,293.833 171.5,293.5C 173.579,293.029 175.579,292.363 177.5,291.5C 177.737,292.791 177.404,293.791 176.5,294.5C 175.687,293.347 174.687,293.347 173.5,294.5C 174.688,301.405 172.021,303.239 165.5,300C 162.871,296.801 163.204,293.801 166.5,291C 170.154,289.726 173.82,288.56 177.5,287.5 Z"/></g>
<g><path style="opacity:1" fill="#fbfcea" d="M 171.5,293.5 C 171.5,293.833 171.5,294.167 171.5,294.5C 170.596,295.209 170.263,296.209 170.5,297.5C 169.5,297.5 168.5,297.5 167.5,297.5C 166.839,293.483 168.172,292.149 171.5,293.5 Z"/></g>
<g><path style="opacity:0.031" fill="#7b699e" d="M 219.5,287.5 C 219.5,287.167 219.5,286.833 219.5,286.5C 220.5,286.5 221.5,286.5 222.5,286.5C 222.38,289.48 221.713,292.313 220.5,295C 222.058,295.21 223.391,295.71 224.5,296.5C 222.856,296.286 221.356,296.62 220,297.5C 219.397,294.344 219.897,291.344 221.5,288.5C 221.043,287.702 220.376,287.369 219.5,287.5 Z"/></g>
<g><path style="opacity:0.988" fill="#bbafcd" d="M 189.5,293.5 C 189.833,293.5 190.167,293.5 190.5,293.5C 190.446,295.632 189.446,296.965 187.5,297.5C 187.66,295.847 188.326,294.514 189.5,293.5 Z"/></g>
<g><path style="opacity:1" fill="#f3ecf8" d="M 177.5,288.5 C 177.5,289.5 177.5,290.5 177.5,291.5C 175.579,292.363 173.579,293.029 171.5,293.5C 168.172,292.149 166.839,293.483 167.5,297.5C 168.5,297.5 169.5,297.5 170.5,297.5C 170.263,296.209 170.596,295.209 171.5,294.5C 171.5,296.167 171.5,297.833 171.5,299.5C 166.325,300.493 164.491,298.493 166,293.5C 169.605,291.352 173.438,289.686 177.5,288.5 Z"/></g>
<g><path style="opacity:0.561" fill="#9584b6" d="M 309.5,296.5 C 308.486,297.674 307.153,298.34 305.5,298.5C 306.287,296.896 307.62,296.229 309.5,296.5 Z"/></g>
<g><path style="opacity:0.997" fill="#faf6fb" d="M 177.5,287.5 C 179.5,287.5 181.5,287.5 183.5,287.5C 182.032,292.714 181.365,298.047 181.5,303.5C 180.021,304.759 178.354,305.759 176.5,306.5C 176.5,302.5 176.5,298.5 176.5,294.5C 177.404,293.791 177.737,292.791 177.5,291.5C 177.5,290.5 177.5,289.5 177.5,288.5C 177.5,288.167 177.5,287.833 177.5,287.5 Z"/></g>
<g><path style="opacity:0.997" fill="#f0e7f6" d="M 219.5,287.5 C 220.376,287.369 221.043,287.702 221.5,288.5C 219.897,291.344 219.397,294.344 220,297.5C 221.356,296.62 222.856,296.286 224.5,296.5C 226.69,297.374 227.69,299.041 227.5,301.5C 226.292,300.766 224.959,300.433 223.5,300.5C 223.946,303.01 223.28,305.01 221.5,306.5C 221.5,304.5 221.5,302.5 221.5,300.5C 220.5,300.5 219.5,300.5 218.5,300.5C 218.74,297.421 218.407,294.421 217.5,291.5C 218.63,290.378 219.297,289.044 219.5,287.5 Z"/></g>
<g><path style="opacity:0.996" fill="#f4ecfa" d="M 246.5,304.5 C 245.8,299.645 244.467,298.978 242.5,302.5C 242.196,300.204 241.196,299.871 239.5,301.5C 237.668,300.282 236.668,300.949 236.5,303.5C 235.883,303.389 235.383,303.056 235,302.5C 234.503,304.81 234.337,307.143 234.5,309.5C 232.589,304.841 233.589,300.841 237.5,297.5C 240.628,296.382 243.628,296.549 246.5,298C 249.134,300.293 249.134,302.46 246.5,304.5 Z"/></g>
<g><path style="opacity:0.459" fill="#756194" d="M 278.5,295.5 C 278.426,297.411 277.426,298.578 275.5,299C 272.304,299.805 269.304,299.638 266.5,298.5C 270.991,299.115 274.991,298.115 278.5,295.5 Z"/></g>
<g><path style="opacity:0.999" fill="#eee9f2" d="M 294.5,296.5 C 295.714,299.129 295.714,301.796 294.5,304.5C 290.328,306.297 289.328,305.63 291.5,302.5C 291.043,301.702 290.376,301.369 289.5,301.5C 288.368,300.646 287.035,300.646 285.5,301.5C 285.833,300.167 286.167,298.833 286.5,297.5C 286.833,297.5 287.167,297.5 287.5,297.5C 288.492,297.672 289.158,297.338 289.5,296.5C 291.284,295.28 292.95,295.28 294.5,296.5 Z"/></g>
<g><path style="opacity:0.016" fill="#8574a9" d="M 177.5,287.5 C 179.607,286.532 181.941,286.198 184.5,286.5C 183.625,291.335 183.625,296.002 184.5,300.5C 183.89,301.391 183.557,302.391 183.5,303.5C 182.833,303.5 182.167,303.5 181.5,303.5C 181.365,298.047 182.032,292.714 183.5,287.5C 181.5,287.5 179.5,287.5 177.5,287.5 Z"/></g>
<g><path style="opacity:0.706" fill="#8778ae" d="M 294.5,296.5 C 296.439,297.014 297.439,298.347 297.5,300.5C 296.999,302.836 295.999,304.836 294.5,306.5C 294.5,305.833 294.5,305.167 294.5,304.5C 295.714,301.796 295.714,299.129 294.5,296.5 Z"/></g>
<g><path style="opacity:0.996" fill="#f8f6f8" d="M 246.5,304.5 C 245.833,305.167 245.167,305.833 244.5,306.5C 244.167,306.5 243.833,306.5 243.5,306.5C 241.517,306.157 240.183,306.824 239.5,308.5C 235.516,308.528 234.516,306.861 236.5,303.5C 236.668,300.949 237.668,300.282 239.5,301.5C 239.351,305.001 240.351,305.334 242.5,302.5C 244.467,298.978 245.8,299.645 246.5,304.5 Z"/></g>
<g><path style="opacity:0.78" fill="#b5a4d0" d="M 258.5,294.5 C 258.326,296.861 257.993,299.194 257.5,301.5C 257.167,301.5 256.833,301.5 256.5,301.5C 256.5,300.833 256.5,300.167 256.5,299.5C 256.402,297.447 257.069,295.78 258.5,294.5 Z"/></g>
<g><path style="opacity:0.518" fill="#8a7ea9" d="M 266.5,298.5 C 265.504,298.414 264.671,298.748 264,299.5C 263.666,301.847 263.833,304.181 264.5,306.5C 262.735,303.877 262.068,300.877 262.5,297.5C 264.001,296.557 265.335,296.891 266.5,298.5 Z"/></g>
<g><path style="opacity:0.998" fill="#f7f3f6" d="M 330.5,298.5 C 330.5,299.5 330.5,300.5 330.5,301.5C 329.262,303.214 328.595,305.214 328.5,307.5C 326.224,307.244 325.057,305.91 325,303.5C 324.722,304.416 324.222,305.082 323.5,305.5C 322.931,301.671 323.598,298.337 325.5,295.5C 324.527,297.068 324.36,298.735 325,300.5C 327.273,296.846 328.439,292.846 328.5,288.5C 329.5,288.5 330.5,288.5 331.5,288.5C 330.793,291.786 330.46,295.119 330.5,298.5 Z"/></g>
<g><path style="opacity:0.082" fill="#8c7daf" d="M 195.5,283.5 C 198.795,291.302 197.128,297.968 190.5,303.5C 190.167,303.5 189.833,303.5 189.5,303.5C 194.861,298.702 196.861,292.702 195.5,285.5C 195.5,284.833 195.5,284.167 195.5,283.5 Z"/></g>
<g><path style="opacity:0.373" fill="#826ea3" d="M 250.5,309.5 C 250.511,307.983 251.177,306.816 252.5,306C 252,305.5 251.5,305 251,304.5C 250.252,306.751 248.752,308.084 246.5,308.5C 246.833,307.833 247.167,307.167 247.5,306.5C 246.5,306.5 245.5,306.5 244.5,306.5C 245.167,305.833 245.833,305.167 246.5,304.5C 249.134,302.46 249.134,300.293 246.5,298C 243.628,296.549 240.628,296.382 237.5,297.5C 241.488,294.685 245.321,295.018 249,298.5C 249.494,300.134 249.66,301.801 249.5,303.5C 253.071,303.408 254.238,305.074 253,308.5C 252.329,309.252 251.496,309.586 250.5,309.5 Z"/></g>
<g><path style="opacity:0.831" fill="#9d8ec1" d="M 281.5,293.5 C 281.649,296.607 281.149,299.607 280,302.5C 279.583,303.756 278.75,304.423 277.5,304.5C 278.858,300.752 280.191,297.086 281.5,293.5 Z"/></g>
<g><path style="opacity:0.996" fill="#f5f0f1" d="M 286.5,297.5 C 286.167,298.833 285.833,300.167 285.5,301.5C 285.5,302.833 285.5,304.167 285.5,305.5C 285.768,307.099 285.434,308.432 284.5,309.5C 283.596,310.209 283.263,311.209 283.5,312.5C 282.167,312.5 280.833,312.5 279.5,312.5C 278.489,310.598 278.322,308.598 279,306.5C 281.159,303.872 282.659,300.872 283.5,297.5C 284.527,296.209 285.527,296.209 286.5,297.5 Z"/></g>
<g><path style="opacity:0.996" fill="#f8f0f9" d="M 309.5,296.5 C 309.833,296.5 310.167,296.5 310.5,296.5C 313.32,296.248 315.986,296.748 318.5,298C 319.337,299.011 319.67,300.178 319.5,301.5C 315.741,300.092 312.075,300.258 308.5,302C 306.984,303.897 306.317,306.064 306.5,308.5C 307.5,309.167 308.5,309.833 309.5,310.5C 309.167,311.167 308.833,311.833 308.5,312.5C 305.487,312.893 302.82,312.226 300.5,310.5C 300.84,308.452 300.507,307.452 299.5,307.5C 298.761,307.631 298.094,307.464 297.5,307C 301.116,304.89 303.782,302.056 305.5,298.5C 307.153,298.34 308.486,297.674 309.5,296.5 Z"/></g>
<g><path style="opacity:0.31" fill="#8274a0" d="M 325.5,292.5 C 325.5,293.5 325.5,294.5 325.5,295.5C 323.598,298.337 322.931,301.671 323.5,305.5C 321.372,306.957 319.038,307.957 316.5,308.5C 315.858,300.329 313.525,299.662 309.5,306.5C 309.179,308.048 308.179,308.715 306.5,308.5C 306.317,306.064 306.984,303.897 308.5,302C 312.075,300.258 315.741,300.092 319.5,301.5C 319.67,300.178 319.337,299.011 318.5,298C 315.986,296.748 313.32,296.248 310.5,296.5C 314.311,294.882 317.811,295.549 321,298.5C 321.639,295.788 323.139,293.788 325.5,292.5 Z M 320.5,300.5 C 322.225,300.843 322.725,301.843 322,303.5C 320.667,304.833 319.333,306.167 318,307.5C 317.333,306.5 317.333,305.5 318,304.5C 319.085,303.264 319.918,301.931 320.5,300.5 Z M 309.5,306.5 C 308.637,307.463 307.97,307.463 307.5,306.5C 308.721,302.661 309.388,302.661 309.5,306.5 Z"/></g>
<g><path style="opacity:0.427" fill="#8777a3" d="M 176.5,294.5 C 176.5,298.5 176.5,302.5 176.5,306.5C 175.659,308.379 175.325,310.379 175.5,312.5C 174.907,309.271 174.573,305.937 174.5,302.5C 175.08,299.689 175.746,297.023 176.5,294.5 Z"/></g>
<g><path style="opacity:0.997" fill="#e9ddf2" d="M 187.5,297.5 C 186.833,299.5 186.167,301.5 185.5,303.5C 186.5,303.5 187.5,303.5 188.5,303.5C 186.833,305.833 184.833,307.833 182.5,309.5C 182.383,307.516 183.05,305.85 184.5,304.5C 184.376,303.893 184.043,303.56 183.5,303.5C 183.557,302.391 183.89,301.391 184.5,300.5C 185.167,299.167 186.167,298.167 187.5,297.5 Z"/></g>
<g><path style="opacity:0.998" fill="#faf5f9" d="M 205.5,301.5 C 205.5,301.833 205.5,302.167 205.5,302.5C 203.72,303.99 203.054,305.99 203.5,308.5C 204.551,309.222 205.218,310.222 205.5,311.5C 202.959,312.649 200.459,312.649 198,311.5C 197.951,306.798 198.451,302.131 199.5,297.5C 201.379,296.659 203.379,296.325 205.5,296.5C 205.5,298.167 205.5,299.833 205.5,301.5 Z"/></g>
<g><path style="opacity:0.682" fill="#8e7fb0" d="M 224.5,296.5 C 225.822,296.33 226.989,296.663 228,297.5C 228.977,299.74 229.477,302.073 229.5,304.5C 228.167,305.167 228.167,305.833 229.5,306.5C 228.86,308.332 227.86,308.665 226.5,307.5C 227.348,305.591 227.682,303.591 227.5,301.5C 227.69,299.041 226.69,297.374 224.5,296.5 Z"/></g>
<g><path style="opacity:0.996" fill="#837e97" d="M 242.5,302.5 C 240.351,305.334 239.351,305.001 239.5,301.5C 241.196,299.871 242.196,300.204 242.5,302.5 Z"/></g>
<g><path style="opacity:0.675" fill="#8b7fad" d="M 289.5,301.5 C 289.672,302.492 289.338,303.158 288.5,303.5C 288.44,302.957 288.107,302.624 287.5,302.5C 286.614,303.325 286.281,304.325 286.5,305.5C 286.167,305.5 285.833,305.5 285.5,305.5C 285.5,304.167 285.5,302.833 285.5,301.5C 287.035,300.646 288.368,300.646 289.5,301.5 Z"/></g>
<g><path style="opacity:0.996" fill="#f9f5f7" d="M 181.5,303.5 C 182.167,303.5 182.833,303.5 183.5,303.5C 184.043,303.56 184.376,303.893 184.5,304.5C 183.05,305.85 182.383,307.516 182.5,309.5C 181.009,312.091 178.675,313.091 175.5,312.5C 175.325,310.379 175.659,308.379 176.5,306.5C 178.354,305.759 180.021,304.759 181.5,303.5 Z"/></g>
<g><path style="opacity:0.008" fill="#7e739b" d="M 330.5,301.5 C 330.739,303.467 330.406,305.301 329.5,307C 330.044,307.717 330.711,308.217 331.5,308.5C 330.221,309.715 329.221,309.382 328.5,307.5C 328.595,305.214 329.262,303.214 330.5,301.5 Z"/></g>
<g><path style="opacity:0.063" fill="#77639c" d="M 188.5,303.5 C 188.833,303.5 189.167,303.5 189.5,303.5C 189.833,303.5 190.167,303.5 190.5,303.5C 187.704,306.797 184.704,309.964 181.5,313C 179.288,313.789 177.288,313.622 175.5,312.5C 178.675,313.091 181.009,312.091 182.5,309.5C 184.833,307.833 186.833,305.833 188.5,303.5 Z"/></g>
<g><path style="opacity:0.997" fill="#f7f0f9" d="M 227.5,301.5 C 227.682,303.591 227.348,305.591 226.5,307.5C 227.86,308.665 228.86,308.332 229.5,306.5C 230.423,305.697 231.423,305.53 232.5,306C 231.614,307.615 230.614,309.115 229.5,310.5C 224.275,311.938 218.942,312.438 213.5,312C 211.771,310.211 211.104,308.044 211.5,305.5C 213.398,306.734 215.065,306.401 216.5,304.5C 216.5,306.167 216.5,307.833 216.5,309.5C 218.664,309.279 220.33,308.279 221.5,306.5C 223.28,305.01 223.946,303.01 223.5,300.5C 224.959,300.433 226.292,300.766 227.5,301.5 Z"/></g>
<g><path style="opacity:0.996" fill="#f6f0f9" d="M 262.5,297.5 C 262.068,300.877 262.735,303.877 264.5,306.5C 264.5,307.167 264.5,307.833 264.5,308.5C 261.752,308.402 261.086,309.402 262.5,311.5C 257.974,309.796 255.974,306.463 256.5,301.5C 256.833,301.5 257.167,301.5 257.5,301.5C 258.859,302.007 259.859,303.007 260.5,304.5C 261.168,302.031 261.835,299.698 262.5,297.5 Z"/></g>
<g><path style="opacity:0.506" fill="#8b7dae" d="M 276.5,305.5 C 276.027,306.906 275.027,307.573 273.5,307.5C 273.973,306.094 274.973,305.427 276.5,305.5 Z"/></g>
<g><path style="opacity:0.686" fill="#897ba2" d="M 288.5,303.5 C 288.167,306.167 287.833,308.833 287.5,311.5C 286.539,309.735 286.205,307.735 286.5,305.5C 287.167,304.833 287.833,304.167 288.5,303.5 Z"/></g>
<g><path style="opacity:0.995" fill="#faf2fc" d="M 328.5,307.5 C 329.221,309.382 330.221,309.715 331.5,308.5C 333.371,308.141 334.871,307.141 336,305.5C 335.008,311.263 331.508,313.43 325.5,312C 323.963,310.89 323.297,309.39 323.5,307.5C 323.5,306.833 323.5,306.167 323.5,305.5C 324.222,305.082 324.722,304.416 325,303.5C 325.057,305.91 326.224,307.244 328.5,307.5 Z"/></g>
<g><path style="opacity:0.329" fill="#7f73a2" d="M 218.5,300.5 C 219.5,300.5 220.5,300.5 221.5,300.5C 221.5,302.5 221.5,304.5 221.5,306.5C 220.33,308.279 218.664,309.279 216.5,309.5C 216.5,307.833 216.5,306.167 216.5,304.5C 216.5,303.833 216.833,303.5 217.5,303.5C 217.263,302.209 217.596,301.209 218.5,300.5 Z M 217.5,303.5 C 218.458,303.047 219.292,302.381 220,301.5C 220.874,304.003 220.207,306.003 218,307.5C 217.51,306.207 217.343,304.873 217.5,303.5 Z"/></g>
<g><path style="opacity:0.994" fill="#e9dfef" d="M 289.5,301.5 C 290.376,301.369 291.043,301.702 291.5,302.5C 289.328,305.63 290.328,306.297 294.5,304.5C 294.5,305.167 294.5,305.833 294.5,306.5C 293.596,307.209 293.263,308.209 293.5,309.5C 295.179,309.285 296.179,309.952 296.5,311.5C 295.223,312.898 293.557,313.564 291.5,313.5C 289.645,313.66 288.312,312.993 287.5,311.5C 287.833,308.833 288.167,306.167 288.5,303.5C 289.338,303.158 289.672,302.492 289.5,301.5 Z"/></g>
<g><path style="opacity:0.952" fill="#baacd2" d="M 305.5,298.5 C 303.782,302.056 301.116,304.89 297.5,307C 298.094,307.464 298.761,307.631 299.5,307.5C 298.833,308.5 298.167,309.5 297.5,310.5C 297.5,311.167 297.167,311.5 296.5,311.5C 296.179,309.952 295.179,309.285 293.5,309.5C 293.263,308.209 293.596,307.209 294.5,306.5C 294.56,307.043 294.893,307.376 295.5,307.5C 298.873,304.456 302.207,301.456 305.5,298.5 Z"/></g>
<g><path style="opacity:0.678" fill="#8b7bad" d="M 199.5,297.5 C 198.451,302.131 197.951,306.798 198,311.5C 200.459,312.649 202.959,312.649 205.5,311.5C 205.833,311.5 206.167,311.5 206.5,311.5C 203.605,313.649 200.438,313.983 197,312.5C 196.5,311.5 196,310.5 195.5,309.5C 196.544,305.29 197.877,301.29 199.5,297.5 Z"/></g>
<g><path style="opacity:0.212" fill="#9180b1" d="M 264.5,306.5 C 267.222,308.773 270.222,309.107 273.5,307.5C 270.854,309.78 267.854,310.113 264.5,308.5C 264.5,307.833 264.5,307.167 264.5,306.5 Z"/></g>
<g><path style="opacity:0.38" fill="#726487" d="M 300.5,310.5 C 299.5,310.5 298.5,310.5 297.5,310.5C 298.167,309.5 298.833,308.5 299.5,307.5C 300.507,307.452 300.84,308.452 300.5,310.5 Z"/></g>
<g><path style="opacity:0.988" fill="#d0bfe0" d="M 208.5,309.5 C 208.167,310.5 207.5,311.167 206.5,311.5C 206.167,311.5 205.833,311.5 205.5,311.5C 205.218,310.222 204.551,309.222 203.5,308.5C 205.903,308.607 207.736,307.607 209,305.5C 209.195,306.819 209.028,308.153 208.5,309.5 Z"/></g>
<g><path style="opacity:1" fill="#efe6f5" d="M 236.5,303.5 C 234.516,306.861 235.516,308.528 239.5,308.5C 239.833,308.5 240.167,308.5 240.5,308.5C 242.5,308.5 244.5,308.5 246.5,308.5C 248.752,308.084 250.252,306.751 251,304.5C 251.5,305 252,305.5 252.5,306C 251.177,306.816 250.511,307.983 250.5,309.5C 250.5,310.167 250.167,310.5 249.5,310.5C 245.355,312.35 241.021,312.85 236.5,312C 235.244,311.583 234.577,310.75 234.5,309.5C 234.337,307.143 234.503,304.81 235,302.5C 235.383,303.056 235.883,303.389 236.5,303.5 Z M 243.5,306.5 C 243.833,306.5 244.167,306.5 244.5,306.5C 245.5,306.5 246.5,306.5 247.5,306.5C 247.167,307.167 246.833,307.833 246.5,308.5C 244.5,308.5 242.5,308.5 240.5,308.5C 241.5,307.833 242.5,307.167 243.5,306.5 Z"/></g>
<g><path style="opacity:0.282" fill="#7d7792" d="M 243.5,306.5 C 242.5,307.167 241.5,307.833 240.5,308.5C 240.167,308.5 239.833,308.5 239.5,308.5C 240.183,306.824 241.517,306.157 243.5,306.5 Z"/></g>
<g><path style="opacity:0.475" fill="#8170a0" d="M 256.5,299.5 C 256.5,300.167 256.5,300.833 256.5,301.5C 255.974,306.463 257.974,309.796 262.5,311.5C 267.804,313.364 272.637,312.364 277,308.5C 277.122,310.437 277.955,311.77 279.5,312.5C 280.833,312.5 282.167,312.5 283.5,312.5C 283.263,311.209 283.596,310.209 284.5,309.5C 284.252,313.968 281.918,315.468 277.5,314C 276.874,313.25 276.374,312.416 276,311.5C 271.136,314.871 265.97,315.371 260.5,313C 255.751,309.363 254.417,304.863 256.5,299.5 Z"/></g>
<g><path style="opacity:1" fill="#efe6f5" d="M 323.5,305.5 C 323.5,306.167 323.5,306.833 323.5,307.5C 321.068,308.75 318.734,310.25 316.5,312C 314.735,312.64 313.068,312.473 311.5,311.5C 311.5,311.167 311.5,310.833 311.5,310.5C 313.199,310.66 314.866,310.494 316.5,310C 315.577,307.959 315.244,305.792 315.5,303.5C 314.5,303.5 313.5,303.5 312.5,303.5C 312.773,305.451 312.107,306.951 310.5,308C 311.056,308.383 311.389,308.883 311.5,309.5C 310.833,309.833 310.167,310.167 309.5,310.5C 308.5,309.833 307.5,309.167 306.5,308.5C 308.179,308.715 309.179,308.048 309.5,306.5C 313.525,299.662 315.858,300.329 316.5,308.5C 319.038,307.957 321.372,306.957 323.5,305.5 Z"/></g>
<g><path style="opacity:0.996" fill="#fdfbf1" d="M 311.5,310.5 C 311.5,310.167 311.5,309.833 311.5,309.5C 311.389,308.883 311.056,308.383 310.5,308C 312.107,306.951 312.773,305.451 312.5,303.5C 313.5,303.5 314.5,303.5 315.5,303.5C 315.244,305.792 315.577,307.959 316.5,310C 314.866,310.494 313.199,310.66 311.5,310.5 Z"/></g>
<g><path style="opacity:0.035" fill="#8672aa" d="M 311.5,311.5 C 313.068,312.473 314.735,312.64 316.5,312C 318.734,310.25 321.068,308.75 323.5,307.5C 323.297,309.39 323.963,310.89 325.5,312C 331.508,313.43 335.008,311.263 336,305.5C 334.871,307.141 333.371,308.141 331.5,308.5C 332.812,306.521 334.479,304.855 336.5,303.5C 337.5,303.833 338.167,304.5 338.5,305.5C 334.817,314 329.15,315.666 321.5,310.5C 318.133,313.747 314.8,314.08 311.5,311.5 Z"/></g>
<g><path style="opacity:0.088" fill="#8271a4" d="M 212.5,295.5 C 211.949,298.807 211.616,302.14 211.5,305.5C 211.104,308.044 211.771,310.211 213.5,312C 218.942,312.438 224.275,311.938 229.5,310.5C 224.221,313.167 218.555,314 212.5,313C 211.468,311.373 210.134,310.207 208.5,309.5C 209.028,308.153 209.195,306.819 209,305.5C 207.736,307.607 205.903,308.607 203.5,308.5C 203.054,305.99 203.72,303.99 205.5,302.5C 204.782,304.137 204.616,305.803 205,307.5C 206.351,305.981 207.851,304.648 209.5,303.5C 210.257,300.63 211.257,297.964 212.5,295.5 Z"/></g>
<g><path style="opacity:0.071" fill="#71658e" d="M 311.5,309.5 C 311.5,309.833 311.5,310.167 311.5,310.5C 311.5,310.833 311.5,311.167 311.5,311.5C 310.609,312.11 309.609,312.443 308.5,312.5C 308.833,311.833 309.167,311.167 309.5,310.5C 310.167,310.167 310.833,309.833 311.5,309.5 Z"/></g>
<g><path style="opacity:0.71" fill="#8674a5" d="M 237.5,297.5 C 233.589,300.841 232.589,304.841 234.5,309.5C 234.577,310.75 235.244,311.583 236.5,312C 241.021,312.85 245.355,312.35 249.5,310.5C 247.71,312.931 245.21,314.264 242,314.5C 239.865,313.873 237.698,313.373 235.5,313C 233.667,312.5 232.5,311.333 232,309.5C 231.329,310.252 230.496,310.586 229.5,310.5C 230.614,309.115 231.614,307.615 232.5,306C 231.423,305.53 230.423,305.697 229.5,306.5C 229.5,305.833 229.5,305.167 229.5,304.5C 230.496,304.586 231.329,304.252 232,303.5C 232.354,300.086 234.188,298.086 237.5,297.5 Z"/></g>
<g><path style="opacity:0.314" fill="#7a669e" d="M 300.5,310.5 C 302.82,312.226 305.487,312.893 308.5,312.5C 306.372,313.629 304.039,313.796 301.5,313C 300.748,312.329 300.414,311.496 300.5,310.5 Z"/></g>
</svg>
